<svg id="Calque_1" data-name="Calque 1" xmlns="http://www.w3.org/2000/svg" viewBox="0 0 512 512"><defs><style>.cls-1{fill:#fff;}</style></defs><title>Subvitamine-logotype-full-white</title><path class="cls-1" d="M208.57,301.29c0,3.47,2.78,5.27,6.66,5.27,5.53,0,9.46-3.64,9.46-8.4v-4.82c-1.51,1-6,1.65-8.75,2C211.5,296,208.57,297.74,208.57,301.29Z"/><path class="cls-1" d="M404.57,277.77a9.6,9.6,0,0,0-9.79,9.32h19.08A9,9,0,0,0,404.57,277.77Z"/><path class="cls-1" d="M213.14,235.67c6.19,0,9.56-5.5,9.56-13.43S219.39,209,213.14,209s-9.55,5.18-9.55,13.29S207.08,235.67,213.14,235.67Z"/><path class="cls-1" d="M0,158.14v256l512-60.22V97.86Zm191.25,26.22h12.6v22.79h.39a13.38,13.38,0,0,1,12.93-8.23c10,0,18.4,7.75,18.4,23.37,0,15.21-8.08,23.41-18.43,23.41-7.34,0-11.16-4.23-12.9-8h-.56V245H191.25Zm-77,35.69-6.59-1.66c-10.24-2.46-16.54-7.57-16.51-16.51-.06-11,9.67-18.34,22.95-18.34,13.5,0,22.37,7.45,22.55,18.25H124.4c-.47-4.76-4.23-7.54-10.35-7.54-6.28,0-9.74,2.87-9.74,6.77-.09,4.35,4.32,6.3,9.59,7.52l5.44,1.3c10.54,2.37,18.14,7.72,18.17,17.81,0,11.1-8.73,18.17-23.52,18.17S89.9,239,89.58,225.93H102c.42,6.07,5.21,9.15,11.87,9.15,6.51,0,10.71-3,10.74-7.46C124.55,223.54,120.88,221.64,114.28,220.05Zm11.39,94.35H109.16L88.25,253.81h14.23l14.64,46h.57l14.67-46h14.2Zm16.86-85.95V199.51h12.6V226.2c0,5.36,3.11,8.7,7.87,8.7,4.53,0,8.7-3.2,8.67-9.29v-26.1h12.61V245h-12.1V236.7h-.48c-2,5.33-6.95,8.85-13.79,8.85C148.77,245.55,142.56,239.07,142.53,228.45Zm20.36,85.95H150.28V269h12.61Zm-6.28-51.3a6.39,6.39,0,1,1,6.84-6.39A6.63,6.63,0,0,1,156.61,263.1ZM187.78,315c-9.14.39-15.2-4-15.15-12.93V278.42h-6.21V269h6.21V258.07h12.61V269h8.55v9.46h-8.55v22c0,3.49,1.74,4.44,4.26,4.44a16.94,16.94,0,0,0,3.13-.42l2,9.38A24.76,24.76,0,0,1,187.78,315Zm49.43-.62h-12v-6.3h-.36c-2.22,4.23-6.57,7.16-13.28,7.16-8.67,0-15.09-4.56-15.09-13.55,0-10.15,8.07-13.17,17.07-14,7.9-.76,11-1.15,11-4.08v-.18c0-3.72-2.46-5.88-6.75-5.88-4.53,0-7.22,2.22-8.08,5.23l-11.66-.94c1.75-8.29,8.91-13.49,19.8-13.49,10.12,0,19.29,4.55,19.29,15.38Zm72.51,0H297.14V286.32c0-5.05-3-7.57-7-7.57-4.59,0-7.28,3.2-7.28,7.9V314.4H270.6V286.06c0-4.47-2.78-7.31-6.92-7.31s-7.4,3.34-7.4,8.37V314.4h-12.6V269h12v8h.53c1.9-5.35,6.54-8.6,12.67-8.6s10.88,3.34,12.33,8.6h.48c1.86-5.2,7-8.6,13.7-8.6,8.46,0,14.32,5.62,14.32,15.47Zm19.22,0h-12.6V269h12.6Zm-6.27-51.3a6.39,6.39,0,1,1,6.84-6.39A6.63,6.63,0,0,1,322.67,263.1Zm54.9,51.3H365V287.71c0-5.56-3-8.87-8.07-8.87s-8.58,3.43-8.61,9.29V314.4H335.67V269h12v8h.53c2-5.29,6.92-8.6,13.67-8.6,9.47,0,15.68,6.5,15.68,17.1Zm48.16-19.5h-31v0c0,6.78,4,10.95,10.3,10.95,4.2,0,7.45-1.8,8.72-5.26l11.66.76c-1.77,8.44-9.35,13.91-20.59,13.91-14,0-22.55-9-22.55-23.4,0-14,8.67-23.52,22.05-23.52,12,0,21.36,7.63,21.36,23.07Z"/></svg>